<svg width="448" height="448" xmlns="http://www.w3.org/2000/svg">

 <g>
  <title>Layer 1</title>
  <path id="svg_11" d="m131.92051,197.36795l0.01415,-0.01415l0.03875,0.03875l0.0646,-0.06458l0.01415,0.01414l-0.07875,0.07874" stroke-width="0" stroke="#000" fill="#ff4f4f"/>
  <path style="--darkreader-inline-fill:#000000; --darkreader-inline-stroke:#e8e6e3;" stroke="#000" id="svg_13" d="m127.47877,229.56477c7.09999,-5.63045 9.28461,-9.23394 9.28461,-9.23394l0.54615,0c0,0 -0.27308,4.9548 -0.27308,9.90959l0,102.6431l-42.57721,0l0,19.34998l110.82362,0l0,-19.34998l-42.03105,0l0,-139.56008l-24.00799,0l-46.1272,36.91698l16.36184,13.96352l18.00031,-14.63917zm100.2419,110.52573c0,3.84747 0.54615,7.88263 1.36538,12.143l124.18162,0l0,-19.34998l-95.50857,0c0.5234,-36.24133 92.50473,-44.33041 92.50473,-96.58098c0,-27.45783 -25.35062,-45.71925 -60.85059,-45.71925c-43.39644,0 -60.87335,30.16044 -60.87335,30.16044l19.91184,11.01691c0,0 13.65383,-20.26962 39.04997,-20.26962c20.18492,0 34.63523,10.56648 34.63523,26.33174c0,37.46126 -94.41627,45.56911 -94.41627,102.26774zm-94.73485,-330.37602l-45.51278,0l0,62.59183l45.51278,0l0,-62.59183zm250.3203,21.88368l0,59.49509l-91.02556,0l0,-59.49509l-136.53834,0l0,59.45755l-90.98005,0l0,-59.45755l-55.04771,0l0,406.68739l428.57111,0l0,-406.68739l-54.97944,0zm32.24581,387.90045l-383.05833,0l0,-279.94596l383.05833,0l0,279.94596zm-55.0022,-409.78413l-45.51278,0l0,62.59183l45.51278,0l0,-62.59183z" stroke-width="0" fill="#228B22"/>
 </g>
</svg>
